<svg id="visual" viewBox="0 0 900 600" width="900" height="600" xmlns="http://www.w3.org/2000/svg" xmlns:xlink="http://www.w3.org/1999/xlink" version="1.1"><rect x="0" y="0" width="900" height="600" fill="#001220"></rect><defs><linearGradient id="grad1_0" x1="33.3%" y1="100%" x2="100%" y2="0%"><stop offset="20%" stop-color="#001220" stop-opacity="1"></stop><stop offset="80%" stop-color="#001220" stop-opacity="1"></stop></linearGradient></defs><defs><linearGradient id="grad2_0" x1="0%" y1="100%" x2="66.7%" y2="0%"><stop offset="20%" stop-color="#001220" stop-opacity="1"></stop><stop offset="80%" stop-color="#001220" stop-opacity="1"></stop></linearGradient></defs><g transform="translate(900, 600)"><path d="M-405.6 0C-396.5 -73.5 -387.4 -147.1 -351.3 -202.8C-315.2 -258.6 -252 -296.5 -189 -327.4C-126 -358.2 -63 -381.9 0 -405.6L0 0Z" fill="#FFFFFF"></path></g><g transform="translate(0, 0)"><path d="M405.6 0C398.2 76.4 390.7 152.8 351.3 202.8C311.8 252.8 240.4 276.3 176.5 305.7C112.6 335.1 56.3 370.4 0 405.6L0 0Z" fill="#FFFFFF"></path></g></svg>